# xmcd
#
# Track frame offsets:
#	150
#	21385
#	41927
#	66649
#	105860
#	135174
#	162184
#	187825
#	210249
#	241048
#
# Disc length: 3635 seconds
#
# Revision: 1
# Processed by: cddbd v1.5.2PL0 Copyright (c) Steve Scherf et al.
# Submitted via: audiograbber 1.83.01
#
DISCID=7a0e310a
DTITLE=Diverse - The Sound of Silence - Inspiration
DYEAR=2000
DGENRE=New Age
TTITLE0=Pia - Angelus Contus
TTITLE1=Pia - Beautiful
TTITLE2=Llewellyn - Dreamweavers
TTITLE3=Llewellyn - With Wings to Fly
TTITLE4=Runestone - Crystal Chamber
TTITLE5=Kevin Kendle - The Emperor
TTITLE6=Pia - Prayer
TTITLE7=Pia - Shyom
TTITLE8=Runestone - Crystal Shield
TTITLE9=Pia - Chasing the Sun
EXTD=YEAR: 2000
EXTT0=
EXTT1=
EXTT2=
EXTT3=
EXTT4=
EXTT5=
EXTT6=
EXTT7=
EXTT8=
EXTT9=
PLAYORDER=
